<?xml version="1.0" encoding="utf-8"?>
<!-- Generator: Adobe Illustrator 16.0.0, SVG Export Plug-In . SVG Version: 6.00 Build 0)  -->
<!DOCTYPE svg PUBLIC "-//W3C//DTD SVG 1.1//EN" "http://www.w3.org/Graphics/SVG/1.1/DTD/svg11.dtd">
<svg version="1.1" xmlns="http://www.w3.org/2000/svg" xmlns:xlink="http://www.w3.org/1999/xlink" x="0px" y="0px" width="48px"
	 height="48px" viewBox="0 0 48 48" enable-background="new 0 0 48 48" xml:space="preserve">
<g id="Layer_1">
	<path fill="none" d="M0,0h48v48H0V0z"/>
	<g>
		<path d="M34,36c-2.21,0-3.98,1.79-3.98,4s1.771,4,3.98,4s4-1.79,4-4S36.21,36,34,36z"/>
		<path d="M14,36c-2.21,0-3.98,1.79-3.98,4s1.77,4,3.98,4s4-1.79,4-4S16.21,36,14,36z"/>
		<path d="M16.2,26H31.1c1.5,0,2.811-0.83,3.5-2.06l7.15-12.98C41.91,10.68,42,10.35,42,10c0-1.11-0.9-2-2-2H10.43l-1.9-4H2v4h4
			l7.19,15.17l-2.7,4.9C10.18,28.65,10,29.3,10,30c0,2.21,1.79,4,4,4h24v-4H14.85c-0.28,0-0.5-0.22-0.5-0.5
			c0-0.09,0.02-0.17,0.06-0.24L16.2,26z M11.875,11.012h25.792l-6.292,11.519H17.167L11.875,11.012z"/>
	</g>
</g>
<g id="guides" display="none">
	<line display="inline" fill="none" stroke="#FF0000" stroke-miterlimit="10" x1="8.53" y1="4" x2="13.917" y2="15.292"/>
	<line display="inline" fill="none" stroke="#FF0000" stroke-miterlimit="10" x1="11.875" y1="29.167" x2="18.417" y2="18.083"/>
</g>
<g id="fill" display="none">
	<polygon display="inline" fill="#FFFFFF" points="11.875,11.012 37.667,11.012 31.375,22.531 17.167,22.531 	"/>
</g>
</svg>
